<svg width="28" height="28" viewBox="0 0 28 28" fill="none" xmlns="http://www.w3.org/2000/svg">
<rect width="28" height="28" fill="#E5E5E5"/>
<path fill-rule="evenodd" clip-rule="evenodd" d="M24 26H4V25H22C23.6569 25 25 23.6569 25 22V4H26V24C26 25.1046 25.1046 26 24 26ZM24 27H4.26756C4.61337 27.5978 5.25972 28 6 28H26C27.1046 28 28 27.1046 28 26V6C28 5.25972 27.5978 4.61337 27 4.26756V24C27 25.6569 25.6569 27 24 27ZM4 19V24H9C8.44772 24 8 23.5523 8 23V22H7C6.44772 22 6 21.5523 6 21V20H5C4.44772 20 4 19.5523 4 19ZM6 19H5.5C5.22386 19 5 18.7761 5 18.5V5.5C5 5.22386 5.22386 5 5.5 5H18.5C18.7761 5 19 5.22386 19 5.5V6H7C6.44772 6 6 6.44772 6 7V19ZM7 19V7.5C7 7.22386 7.22386 7 7.5 7H19V8H9C8.44772 8 8 8.44772 8 9V19H7ZM7 20V20.5C7 20.7761 7.22386 21 7.5 21H8V20H7ZM20 7V8H21V7.5C21 7.22386 20.7761 7 20.5 7H20ZM22 8H23C23.5523 8 24 8.44772 24 9V4H19C19.5523 4 20 4.44772 20 5V6H21C21.5523 6 22 6.44772 22 7V8Z" fill="black"/>
<path fill-rule="evenodd" clip-rule="evenodd" d="M22 24H2V4C2 2.89543 2.89543 2 4 2H24V22C24 23.1046 23.1046 24 22 24ZM22 25H2.26756C2.61337 25.5978 3.25972 26 4 26H24C25.1046 26 26 25.1046 26 24V4C26 3.25972 25.5978 2.61337 25 2.26756V22C25 23.6569 23.6569 25 22 25ZM7 6C6.44772 6 6 6.44772 6 7V19H5.5C5.22386 19 5 18.7761 5 18.5V5.5C5 5.22386 5.22386 5 5.5 5H18.5C18.7761 5 19 5.22386 19 5.5V6H7ZM20 6V5C20 4.44772 19.5523 4 19 4H5C4.44772 4 4 4.44772 4 5V19C4 19.5523 4.44772 20 5 20H6V21C6 21.5523 6.44772 22 7 22H21C21.5523 22 22 21.5523 22 21V7C22 6.44772 21.5523 6 21 6H20Z" fill="black"/>
<path fill-rule="evenodd" clip-rule="evenodd" d="M2 0C0.895431 0 0 0.89543 0 2V22C0 23.1046 0.89543 24 2 24H22C23.1046 24 24 23.1046 24 22V2C24 0.895431 23.1046 0 22 0H2ZM5 4C4.44772 4 4 4.44772 4 5V19C4 19.5523 4.44772 20 5 20H19C19.5523 20 20 19.5523 20 19V5C20 4.44772 19.5523 4 19 4H5Z" fill="black"/>
</svg>
